<?xml version="1.0" encoding="iso-8859-1"?>
<!-- Generator: Adobe Illustrator 16.0.0, SVG Export Plug-In . SVG Version: 6.00 Build 0)  -->
<!DOCTYPE svg PUBLIC "-//W3C//DTD SVG 1.1//EN" "http://www.w3.org/Graphics/SVG/1.1/DTD/svg11.dtd">
<svg version="1.1" id="Capa_1" xmlns="http://www.w3.org/2000/svg" xmlns:xlink="http://www.w3.org/1999/xlink" x="0px" y="0px"
	 width="45.935px" height="45.935px" viewBox="0 0 45.935 45.935" style="enable-background:new 0 0 45.935 45.935;"
	 xml:space="preserve">
<g>
	<g>
		<g>
			<path d="M21.417,6.499V2.713C21.417,1.214,20.237,0,18.74,0c-1.499,0-2.676,1.214-2.676,2.713v3.785
				c0.797-0.202,1.744-0.308,2.677-0.308C19.673,6.19,20.621,6.296,21.417,6.499z"/>
			<path d="M8.531,11.856c0.972-1.552,2.286-2.867,3.837-3.838L9.687,5.337c-1.06-1.06-2.778-1.06-3.838,0
				c-1.059,1.06-1.059,2.778,0,3.837L8.531,11.856z"/>
			<path d="M28.938,11.855l2.682-2.681c1.06-1.059,1.06-2.777,0-3.837c-1.062-1.06-2.776-1.06-3.838,0l-2.682,2.68
				C26.652,8.989,27.967,10.303,28.938,11.855z"/>
			<path d="M3.227,20.967h3.786c-0.202-0.912-0.309-1.801-0.309-2.733S6.81,16.412,7.012,15.5H3.227
				c-1.498,0-2.714,1.235-2.714,2.734S1.729,20.967,3.227,20.967z"/>
			<path d="M30.663,16.646c2.291,0.315,4.324,1.497,5.748,3.208c0.343-0.454,0.545-1.023,0.545-1.637
				c0-1.499-1.215-2.718-2.713-2.718h-3.787C30.542,15.841,30.612,16.258,30.663,16.646z"/>
			<path d="M18.734,8.517c-5.359,0-9.704,4.345-9.704,9.703c0,0.968,0.144,1.902,0.407,2.782c2.298-1.648,5.123-2.623,8.176-2.623
				c1.81,0,3.604,0.343,5.252,0.987c1.433-1.495,3.352-2.471,5.443-2.73C27.552,12.03,23.555,8.517,18.734,8.517z"/>
			<path d="M45.583,29.963c0-3.391-2.748-6.139-6.14-6.139c-1.49,0-2.854,0.533-3.92,1.417c-0.214-3.188-2.856-5.707-6.099-5.707
				c-2.507,0-4.657,1.507-5.604,3.661c-1.726-1.166-3.985-1.846-6.225-1.846c-5.969,0-10.988,4.838-10.988,10.809
				c0,0.008,0,0.015,0,0.021c-2.961,0.234-6.256,3.215-6.256,6.865c0,3.807,3.175,6.891,6.979,6.891
				c2.699,0,5.074-1.555,6.203-3.813c1.291,0.542,2.73,0.846,4.22,0.846c3.343,0,6.343-1.521,8.33-3.906
				c1.2,2.781,3.975,4.73,7.198,4.73c4.328,0,7.843-3.51,7.843-7.839c0-0.03-0.005-0.061-0.005-0.091
				C43.696,35.132,45.583,32.77,45.583,29.963z"/>
		</g>
	</g>
</g>
<g>
</g>
<g>
</g>
<g>
</g>
<g>
</g>
<g>
</g>
<g>
</g>
<g>
</g>
<g>
</g>
<g>
</g>
<g>
</g>
<g>
</g>
<g>
</g>
<g>
</g>
<g>
</g>
<g>
</g>
</svg>
